<svg width="57" height="57" viewBox="0 0 57 57" fill="none" xmlns="http://www.w3.org/2000/svg">
    <rect x="0.5" y="0.5" width="56" height="56" rx="18.1622" fill="#FFCB00" />
    <path
        d="M29.1357 42.1566C26.9058 42.1566 24.8464 41.8156 22.9576 41.1335C21.0949 40.4252 19.4684 39.4283 18.078 38.1428C16.7138 36.8573 15.6513 35.3357 14.8905 33.5781C14.1297 31.8204 13.7493 29.879 13.7493 27.7541C13.7493 25.6291 14.1297 23.6877 14.8905 21.9301C15.6513 20.1724 16.7269 18.6508 18.1173 17.3653C19.5078 16.0798 21.1474 15.096 23.0363 14.4139C24.9514 13.7056 27.0501 13.3515 29.3325 13.3515C32.0608 13.3515 34.4875 13.8106 36.6125 14.7288C38.7637 15.647 40.5345 16.9587 41.9249 18.6639L35.9829 23.8976C35.1171 22.9007 34.1727 22.153 33.1496 21.6546C32.1527 21.1299 31.0377 20.8676 29.8047 20.8676C28.7816 20.8676 27.8502 21.025 27.0107 21.3398C26.1975 21.6546 25.5023 22.1137 24.9251 22.7171C24.348 23.3205 23.902 24.0419 23.5872 24.8814C23.2724 25.7209 23.115 26.6784 23.115 27.7541C23.115 28.7772 23.2724 29.7216 23.5872 30.5873C23.902 31.4268 24.348 32.1483 24.9251 32.7517C25.5023 33.3551 26.1844 33.8273 26.9714 34.1683C27.7847 34.4831 28.6897 34.6405 29.6866 34.6405C30.736 34.6405 31.7591 34.47 32.756 34.129C33.7529 33.7617 34.8154 33.1452 35.9435 32.2795L41.1379 38.6544C39.4589 39.7824 37.5438 40.6482 35.3926 41.2516C33.2414 41.855 31.1558 42.1566 29.1357 42.1566ZM33.0709 37.4738V27.0064H41.1379V38.6544L33.0709 37.4738Z"
        fill="#1E2875" />
    <rect x="30.7703" y="12.6081" width="16.6486" height="12.1081" fill="#FFCB00" />
</svg>
    